<svg xmlns="http://www.w3.org/2000/svg" xmlns:xlink="http://www.w3.org/1999/xlink" viewBox="0 0 511.984 511.984" fill="#000000" width="20" height="20">
	<path fill="#F2F3F9" d="M0 0L512 0L512 56.5605L512 362.674L512 512L0 512L0 363.947L0 55.0272L0 0ZM0 0L0 55.0272C1.01728 53.2509 1.29545 49.7782 1.98344 47.642Q2.54049 45.9041 3.23169 44.2152Q3.92289 42.5262 4.74401 40.8964Q5.56514 39.2666 6.51115 37.706Q7.45717 36.1454 8.52229 34.6635Q9.58741 33.1816 10.7651 31.7876Q11.9428 30.3935 13.2259 29.0958Q14.509 27.798 15.8896 26.6045Q17.2702 25.4111 18.7399 24.3292Q19.8794 23.4964 21.0674 22.7344Q22.2554 21.9723 23.4875 21.2838Q24.7195 20.5952 25.9911 19.9827Q27.2626 19.3702 28.569 18.836Q29.8754 18.3017 31.2118 17.8478Q32.5483 17.3939 33.9097 17.0219Q35.2712 16.6499 36.6528 16.3612Q38.0344 16.0725 39.4309 15.8682C48.1568 14.5422 58.6001 15.2238 67.5217 15.225L115.782 15.2179L142.952 15.217C147.001 15.2171 151.702 14.7554 155.675 15.3917C154.52 17.7472 150.315 20.7066 148.339 22.7626C143.553 27.7422 140.137 33.7422 137.874 40.2377C137.152 42.3091 136.629 44.4404 135.899 46.5043L362.249 46.5073L432.874 46.5071L454.394 46.4922C458.421 46.4856 462.623 46.2398 466.626 46.6269C470.358 46.9877 473.677 48.3909 476.364 51.0405Q476.818 51.4815 477.233 51.9598Q477.647 52.4381 478.019 52.9503Q478.391 53.4624 478.718 54.0046Q479.044 54.5468 479.323 55.115Q479.602 55.6833 479.831 56.2733Q480.06 56.8634 480.238 57.471Q480.415 58.0785 480.54 58.6991Q480.665 59.3196 480.736 59.9486C481.175 63.8685 481.036 67.874 481.033 71.8135L481.017 88.3319L481.009 142.953L481.024 320.884C481.017 326.719 480.983 332.165 476.607 336.602C471.989 341.283 466.675 341.374 460.493 341.364L237.166 341.336L167.51 341.336L145.777 341.327C142.249 341.324 138.502 341.064 135.001 341.386C134.975 362.3 133.045 380.928 149.271 397.17C150.953 398.853 154.784 401.559 155.698 403.526C149.231 404.001 142.52 403.659 136.027 403.657L99.3975 403.646L63.8397 403.652C56.7272 403.656 49.4978 403.959 42.4089 403.348Q38.8315 403.072 35.3421 402.236Q31.8528 401.401 28.5385 400.026Q27.4513 399.578 26.3883 399.075Q25.3252 398.573 24.289 398.017Q23.2528 397.461 22.246 396.853Q21.2393 396.245 20.2647 395.587Q19.2901 394.93 18.35 394.223Q17.41 393.517 16.507 392.763Q15.604 392.01 14.7403 391.212Q13.8766 390.414 13.0545 389.573Q12.2324 388.733 11.4539 387.851Q10.6755 386.97 9.94268 386.05Q9.20988 385.131 8.52465 384.175Q7.83941 383.219 7.20348 382.23Q6.56756 381.241 5.98258 380.221Q5.3976 379.201 4.86507 378.152Q4.33254 377.104 3.85384 376.03Q3.37513 374.956 2.95147 373.859C1.79197 370.873 1.1739 366.612 0.17763 364.337C0.120342 364.206 0.05921 364.077 0 363.947L0 512L512 512L512 362.674L512 56.5605L512 0L0 0Z"/>
	<path fill="#8DD470" d="M325.855 302.545Q315.057 302.484 304.26 302.546C300.139 302.553 295.389 303.024 291.364 302.078C288.608 301.43 286.041 300.127 284.009 298.137C280.17 294.375 279.327 290.079 279.286 284.888L279.273 243.47C279.272 237.424 278.677 226.746 279.726 221.407C280.274 218.615 281.973 215.907 283.966 213.907C285.989 211.876 288.585 210.562 291.366 209.927C295.568 208.966 300.579 209.466 304.89 209.472L325.879 209.474C325.628 229.081 325.823 248.713 325.82 268.322L325.818 290.736C325.818 294.648 325.657 298.642 325.855 302.545Z"/>
	<path fill="#FDC072" d="M91.6598 178.29C88.1446 178.071 84.7947 176.397 82.2798 173.961C78.6989 170.493 77.6839 166.501 77.5931 161.657C77.3374 148.004 77.5951 134.298 77.5957 120.639L77.5819 107.591C77.58 104.156 77.412 100.591 78.0533 97.1997C78.5483 94.5818 80.1085 91.9913 81.9688 90.099C84.0093 88.0236 86.3242 86.5886 89.1716 85.9177C94.5055 84.6609 102.042 85.3305 107.661 85.341L135.039 85.3245L135.006 178.263C125.641 178.061 116.25 178.194 106.882 178.197C101.898 178.198 96.5944 177.809 91.6598 178.29Z"/>
	<path fill="#FAD989" d="M135.039 85.3245L192.769 85.3209L208.407 85.3032C211.546 85.2921 214.9 85.0548 218.006 85.4651C221.894 85.5382 225.611 87.2743 228.318 90.052C230.001 91.7797 231.604 94.2768 232.162 96.6384C233.367 101.738 232.728 115.333 232.729 121.056C232.731 134.626 233.018 148.263 232.692 161.826C232.574 166.734 231.423 170.763 227.76 174.204Q227.306 174.637 226.818 175.03Q226.33 175.424 225.81 175.775Q225.291 176.127 224.744 176.433Q224.197 176.74 223.626 177Q223.056 177.26 222.465 177.471Q221.875 177.682 221.269 177.844Q220.663 178.005 220.046 178.115Q219.428 178.225 218.804 178.283C215.265 178.965 208.676 178.435 204.774 178.436L169.029 178.394L116.215 178.429L101.239 178.465C98.0791 178.476 94.7989 178.646 91.6598 178.29C96.5944 177.809 101.898 178.198 106.882 178.197C116.25 178.194 125.641 178.061 135.006 178.263L135.039 85.3245Z"/>
	<path fill="#FDC072" d="M218.006 85.4651C221.894 85.5382 225.611 87.2743 228.318 90.052C230.001 91.7797 231.604 94.2768 232.162 96.6384C233.367 101.738 232.728 115.333 232.729 121.056C232.731 134.626 233.018 148.263 232.692 161.826C232.574 166.734 231.423 170.763 227.76 174.204Q227.306 174.637 226.818 175.03Q226.33 175.424 225.81 175.775Q225.291 176.127 224.744 176.433Q224.197 176.74 223.626 177Q223.056 177.26 222.465 177.471Q221.875 177.682 221.269 177.844Q220.663 178.005 220.046 178.115Q219.428 178.225 218.804 178.283C215.158 177.984 211.317 178.192 207.654 178.192L186.285 178.212L186.162 114.811C186.164 105.057 186.018 95.2728 186.371 85.5241C196.827 85.5826 207.584 85.9778 218.006 85.4651Z"/>
	<path fill="#ABE094" d="M325.879 209.474L392.74 209.503L411.134 209.467C414.485 209.458 418.207 209.151 421.508 209.706C424.731 210.247 427.859 211.936 430.137 214.275C432.305 216.501 433.592 219.378 434.109 222.42C434.684 225.795 434.45 229.433 434.445 232.853L434.416 247.635C434.389 260.402 434.824 273.277 434.407 286.027C434.246 290.925 433.018 295.018 429.341 298.441C427.122 300.507 424.475 301.78 421.476 302.25C417.985 302.798 414.269 302.548 410.741 302.541L393.037 302.515L325.855 302.545C325.657 298.642 325.818 294.648 325.818 290.736L325.82 268.322C325.823 248.713 325.628 229.081 325.879 209.474Z"/>
	<path fill="#00C3DA" d="M90.8414 209.592C99.0795 209.099 107.528 209.469 115.787 209.472L161.727 209.486L199.83 209.492C205.999 209.491 212.403 209.066 218.536 209.556Q219.521 209.629 220.488 209.831Q221.455 210.032 222.387 210.359Q223.32 210.686 224.201 211.132Q225.082 211.579 225.897 212.137Q226.525 212.563 227.108 213.05Q227.69 213.536 228.223 214.077Q228.755 214.619 229.231 215.21Q229.707 215.801 230.122 216.436Q230.538 217.071 230.889 217.744Q231.24 218.417 231.523 219.121Q231.806 219.825 232.018 220.554Q232.231 221.283 232.37 222.029C233.158 226.094 232.754 230.672 232.743 234.816L232.708 255.785L232.737 276.799C232.749 280.679 233.016 284.771 232.567 288.626Q232.462 289.598 232.238 290.549Q232.015 291.5 231.677 292.417Q231.339 293.334 230.892 294.203Q230.445 295.072 229.895 295.88C227.352 299.638 223.601 301.577 219.256 302.424C212.134 303 204.334 302.524 197.131 302.524L153.892 302.526L112.182 302.525C105.365 302.526 98.2362 303.025 91.4629 302.449C89.0942 302.247 86.9979 301.4 84.979 300.193C81.3462 298.02 78.8537 294.415 77.9164 290.296C77.0447 286.466 77.5313 281.686 77.5365 277.742L77.5338 258.17L77.5285 236.047C77.5284 231.895 77.2637 227.541 77.7297 223.423C78.0261 220.802 78.6737 218.64 80.1502 216.425C82.6707 212.644 86.4604 210.485 90.8414 209.592Z"/>
	<path fill="#F2F3F9" d="M107.903 232.83C113.209 232.479 118.71 232.746 124.035 232.746L154.455 232.745L186.614 232.743C191.361 232.741 196.267 232.427 200.992 232.68C202.551 232.763 204.108 233.108 205.473 233.887Q205.821 234.083 206.148 234.313Q206.475 234.543 206.777 234.805Q207.078 235.066 207.352 235.357Q207.626 235.648 207.87 235.965Q208.113 236.282 208.323 236.622Q208.533 236.961 208.708 237.321Q208.882 237.68 209.02 238.055Q209.158 238.43 209.257 238.817Q209.344 239.165 209.396 239.519Q209.449 239.874 209.465 240.231Q209.482 240.589 209.464 240.947Q209.445 241.305 209.391 241.659Q209.337 242.013 209.248 242.361Q209.159 242.708 209.036 243.044Q208.913 243.381 208.757 243.704Q208.602 244.026 208.415 244.332C207.124 246.435 205.084 247.524 202.764 248.126C197.347 248.499 191.758 248.228 186.322 248.228L155.311 248.224L123.379 248.188C118.686 248.181 113.818 248.507 109.143 248.218C107.567 248.12 106.034 247.819 104.648 247.032C102.891 246.033 101.649 244.424 101.159 242.46Q101.061 242.074 101.003 241.68Q100.945 241.286 100.928 240.887Q100.911 240.489 100.935 240.092Q100.959 239.694 101.025 239.301Q101.09 238.908 101.195 238.524Q101.301 238.14 101.446 237.768Q101.59 237.397 101.773 237.043Q101.955 236.689 102.173 236.355C103.563 234.236 105.485 233.307 107.903 232.83Z"/>
	<path fill="#F2F3F9" d="M108.473 263.837C114.828 263.647 121.228 263.795 127.587 263.795L163.32 263.783L188.857 263.796C192.883 263.796 197.021 263.539 201.034 263.777C202.527 263.865 204.279 264.071 205.578 264.866C207.414 265.989 208.888 268.025 209.313 270.136C209.696 272.034 209.241 274.04 208.167 275.639C206.731 277.777 204.713 278.744 202.254 279.225C195.788 279.424 189.273 279.268 182.802 279.267L146.407 279.262L121.844 279.268C117.515 279.27 113.063 279.494 108.752 279.183C107.155 279.068 105.653 278.808 104.302 277.892C102.501 276.669 101.295 274.651 100.992 272.503C100.709 270.495 101.2 268.587 102.415 266.967C103.968 264.894 106.016 264.187 108.473 263.837Z"/>
	<path fill="#FE7970" d="M295.09 85.366L381.951 85.3726L407.312 85.3573C412.076 85.3529 417.1 84.994 421.821 85.6133C424.583 85.9756 427.322 87.3513 429.403 89.1927C432.607 92.0283 434.148 96.0521 434.404 100.25C434.666 104.548 434.459 108.967 434.448 113.276L434.417 137.543L434.452 154.467C434.465 158.069 434.738 161.92 434.165 165.478C433.68 168.487 432.429 171.315 430.377 173.585C427.357 176.924 423.385 178.207 419.018 178.395L330.192 178.363L305.792 178.386C301.249 178.406 296.271 178.793 291.773 178.148C289.157 177.773 286.334 176.32 284.348 174.582C281.047 171.693 279.579 167.949 279.349 163.645C279.098 158.944 279.269 154.156 279.268 149.446L279.267 123.172L279.272 107.536C279.274 104.545 279.034 101.279 279.481 98.3275C279.919 95.4324 281.155 92.5503 283.132 90.3769C286.388 86.7972 290.362 85.5686 295.09 85.366Z"/>
	<path fill="#F2F3F9" d="M377.424 139.623L393.5 139.656C397.139 139.636 401.327 139.148 404.876 139.881Q405.415 139.99 405.934 140.172Q406.453 140.354 406.941 140.607Q407.43 140.86 407.878 141.178Q408.327 141.496 408.727 141.873Q409.015 142.144 409.274 142.444Q409.533 142.743 409.76 143.067Q409.986 143.392 410.179 143.737Q410.371 144.083 410.527 144.447Q410.683 144.81 410.801 145.188Q410.919 145.566 410.997 145.954Q411.076 146.342 411.115 146.735Q411.153 147.129 411.151 147.525Q411.144 147.895 411.1 148.263Q411.055 148.631 410.974 148.993Q410.893 149.354 410.776 149.706Q410.66 150.058 410.508 150.396Q410.356 150.734 410.172 151.055Q409.987 151.376 409.771 151.677Q409.555 151.978 409.31 152.256Q409.065 152.534 408.793 152.786C406.063 155.359 402.611 155.229 399.123 155.217L381.498 155.209C378.274 155.214 374.702 155.556 371.525 155.025C369.979 154.766 368.564 154.251 367.349 153.236C365.742 151.892 364.749 149.831 364.646 147.744C364.54 145.596 365.441 143.445 366.956 141.935C369.802 139.1 373.755 139.61 377.424 139.623Z"/>
	<path fill="#F2F3F9" d="M315.424 139.624L332.957 139.616C336.014 139.614 339.351 139.35 342.364 139.851C343.834 140.096 345.235 140.528 346.377 141.523C347.859 142.814 348.956 145.154 349.052 147.114C349.156 149.247 348.169 151.403 346.681 152.899C344.047 155.545 340.149 155.212 336.717 155.218L319.201 155.241C315.906 155.244 312.316 155.529 309.077 154.926C307.676 154.665 306.534 154.261 305.437 153.328C303.742 151.886 302.679 149.947 302.572 147.714C302.464 145.479 303.289 143.569 304.854 141.99C307.684 139.136 311.749 139.611 315.424 139.624Z"/>
	<path fill="#F2F3F9" d="M315.174 108.624L377.268 108.639L395.173 108.639C398.175 108.638 401.469 108.371 404.43 108.729C405.798 108.894 407.159 109.592 408.225 110.454C409.904 111.814 411.023 113.824 411.152 115.995C411.275 118.062 410.492 120.037 409.049 121.512C406.339 124.283 402.83 124.12 399.274 124.138L337.924 124.121L319.898 124.129C316.779 124.142 313.54 124.393 310.438 124.076C308.582 123.886 306.831 123.357 305.363 122.167C303.728 120.843 302.62 118.893 302.505 116.775C302.39 114.658 303.245 112.6 304.723 111.097C307.643 108.127 311.383 108.601 315.174 108.624Z"/>
	<path fill="#4A66A0" d="M0 55.0272C1.01728 53.2509 1.29545 49.7782 1.98344 47.642Q2.54049 45.9041 3.23169 44.2152Q3.92289 42.5262 4.74401 40.8964Q5.56514 39.2666 6.51115 37.706Q7.45717 36.1454 8.52229 34.6635Q9.58741 33.1816 10.7651 31.7876Q11.9428 30.3935 13.2259 29.0958Q14.509 27.798 15.8896 26.6045Q17.2702 25.4111 18.7399 24.3292Q19.8794 23.4964 21.0674 22.7344Q22.2554 21.9723 23.4875 21.2838Q24.7195 20.5952 25.9911 19.9827Q27.2626 19.3702 28.569 18.836Q29.8754 18.3017 31.2118 17.8478Q32.5483 17.3939 33.9097 17.0219Q35.2712 16.6499 36.6528 16.3612Q38.0344 16.0725 39.4309 15.8682C48.1568 14.5422 58.6001 15.2238 67.5217 15.225L115.782 15.2179L142.952 15.217C147.001 15.2171 151.702 14.7554 155.675 15.3917C154.52 17.7472 150.315 20.7066 148.339 22.7626C143.553 27.7422 140.137 33.7422 137.874 40.2377C137.152 42.3091 136.629 44.4404 135.899 46.5043L72.4318 46.5275L54.9389 46.5008C51.2281 46.4959 47.3039 46.2369 43.6401 46.849C40.6662 47.3459 37.6852 49.0417 35.5551 51.1615C32.7716 53.9315 31.5709 57.0715 31.1639 60.9378C30.7988 64.4069 30.9953 68.0104 30.9984 71.4995L31.0089 89.2173L31.0107 147.259L31.0035 323.38C31.0498 328.601 31.8058 333.03 35.6714 336.827C37.8256 338.943 40.7327 340.512 43.7146 341.022C47.1344 341.608 50.822 341.345 54.287 341.336L70.5498 341.308C92.0185 341.295 113.538 340.994 135.001 341.386C134.975 362.3 133.045 380.928 149.271 397.17C150.953 398.853 154.784 401.559 155.698 403.526C149.231 404.001 142.52 403.659 136.027 403.657L99.3975 403.646L63.8397 403.652C56.7272 403.656 49.4978 403.959 42.4089 403.348Q38.8315 403.072 35.3421 402.236Q31.8528 401.401 28.5385 400.026Q27.4513 399.578 26.3883 399.075Q25.3252 398.573 24.289 398.017Q23.2528 397.461 22.246 396.853Q21.2393 396.245 20.2647 395.587Q19.2901 394.93 18.35 394.223Q17.41 393.517 16.507 392.763Q15.604 392.01 14.7403 391.212Q13.8766 390.414 13.0545 389.573Q12.2324 388.733 11.4539 387.851Q10.6755 386.97 9.94268 386.05Q9.20988 385.131 8.52465 384.175Q7.83941 383.219 7.20348 382.23Q6.56756 381.241 5.98258 380.221Q5.3976 379.201 4.86507 378.152Q4.33254 377.104 3.85384 376.03Q3.37513 374.956 2.95147 373.859C1.79197 370.873 1.1739 366.612 0.17763 364.337C0.120342 364.206 0.05921 364.077 0 363.947L0 55.0272Z"/>
	<path fill="#687DAA" d="M0 0L512 0L512 56.5605L512 362.674L512 512L0 512L0 363.947C0.05921 364.077 0.120342 364.206 0.17763 364.337C1.1739 366.612 1.79197 370.873 2.95147 373.859Q3.37513 374.956 3.85384 376.03Q4.33255 377.104 4.86507 378.152Q5.3976 379.201 5.98258 380.221Q6.56756 381.241 7.20348 382.23Q7.83941 383.219 8.52465 384.175Q9.20989 385.131 9.94268 386.05Q10.6755 386.97 11.4539 387.851Q12.2324 388.733 13.0545 389.573Q13.8766 390.414 14.7403 391.212Q15.604 392.01 16.507 392.763Q17.41 393.517 18.35 394.223Q19.2901 394.93 20.2647 395.587Q21.2393 396.245 22.246 396.853Q23.2528 397.461 24.289 398.017Q25.3252 398.573 26.3883 399.075Q27.4513 399.578 28.5385 400.026Q31.8528 401.401 35.3421 402.236Q38.8315 403.072 42.4089 403.348C49.4978 403.959 56.7272 403.656 63.8397 403.652L99.3975 403.646L136.027 403.657C142.52 403.659 149.231 404.001 155.698 403.526C154.784 401.559 150.953 398.853 149.271 397.17C133.045 380.928 134.975 362.3 135.001 341.386C138.502 341.064 142.249 341.324 145.777 341.327L167.51 341.336L237.166 341.336L460.493 341.364C466.675 341.374 471.989 341.283 476.607 336.602C480.983 332.165 481.017 326.719 481.024 320.884L481.009 142.953L481.017 88.3319L481.033 71.8135C481.036 67.874 481.175 63.8685 480.736 59.9486Q480.665 59.3196 480.54 58.6991Q480.415 58.0785 480.238 57.471Q480.06 56.8634 479.831 56.2733Q479.602 55.6833 479.323 55.115Q479.044 54.5468 478.718 54.0046Q478.391 53.4624 478.019 52.9503Q477.647 52.4381 477.233 51.9598Q476.818 51.4815 476.364 51.0405C473.677 48.3909 470.358 46.9877 466.626 46.6269C462.623 46.2398 458.421 46.4856 454.394 46.4922L432.874 46.5071L362.249 46.5073L135.899 46.5043C136.629 44.4404 137.152 42.3091 137.874 40.2377C140.137 33.7422 143.553 27.7422 148.339 22.7626C150.315 20.7066 154.52 17.7472 155.675 15.3917C151.702 14.7554 147.001 15.2171 142.952 15.217L115.782 15.2179L67.5217 15.225C58.6001 15.2238 48.1568 14.5422 39.4309 15.8682Q38.0344 16.0725 36.6528 16.3612Q35.2712 16.6499 33.9097 17.0219Q32.5482 17.3939 31.2118 17.8478Q29.8754 18.3017 28.569 18.836Q27.2626 19.3702 25.9911 19.9827Q24.7195 20.5952 23.4875 21.2838Q22.2554 21.9723 21.0674 22.7344Q19.8794 23.4964 18.7399 24.3292Q17.2702 25.4111 15.8896 26.6045Q14.509 27.798 13.2259 29.0958Q11.9428 30.3935 10.7651 31.7876Q9.58741 33.1816 8.52229 34.6635Q7.45717 36.1454 6.51115 37.706Q5.56514 39.2666 4.74401 40.8964Q3.92289 42.5262 3.23169 44.2152Q2.54049 45.9041 1.98344 47.642C1.29545 49.7782 1.01728 53.2509 0 55.0272L0 0ZM512 362.674L511.926 362.907C511.111 365.566 510.84 368.363 509.979 371.014Q509.638 372.087 509.245 373.143Q508.852 374.198 508.409 375.233Q507.966 376.268 507.473 377.281Q506.981 378.293 506.44 379.281Q505.899 380.269 505.311 381.229Q504.724 382.19 504.09 383.121Q503.456 384.052 502.779 384.951Q502.101 385.85 501.381 386.716Q500.66 387.581 499.899 388.411Q499.138 389.241 498.338 390.033Q497.538 390.825 496.7 391.578Q495.862 392.33 494.989 393.042Q494.116 393.753 493.21 394.421Q492.304 395.09 491.367 395.714Q490.429 396.338 489.463 396.915Q488.496 397.493 487.503 398.024C482.812 400.517 477.348 402.354 472.06 402.959C466.107 403.64 460.009 403.397 454.025 403.386L428.552 403.364L367.741 403.358Q349.174 403.261 330.608 403.481C332.918 406.417 334.735 409.901 336.658 413.104C339.471 417.789 342.389 422.446 345.039 427.224C340.863 428.23 328.141 427.637 323.103 427.639L256.136 427.652L240.054 427.628C235.864 427.617 230.716 427.12 226.669 428.172Q225.964 428.348 225.279 428.592Q224.595 428.837 223.937 429.146Q223.28 429.456 222.655 429.827Q222.031 430.199 221.445 430.63Q220.86 431.061 220.319 431.547Q219.779 432.032 219.288 432.568Q218.797 433.104 218.36 433.685Q217.924 434.266 217.546 434.887C214.751 439.427 213.331 445.033 211.225 449.933L210.939 450.05C198.384 449.77 185.788 449.98 173.228 449.991C166.969 449.996 159.975 450.614 153.827 449.497C154.847 446.287 161.583 436.14 163.751 432.527L174.624 414.392C176.818 410.732 178.901 406.94 181.376 403.466C172.81 403.452 164.266 403.228 155.698 403.526C149.231 404.001 142.52 403.659 136.027 403.657L99.3975 403.646L63.8397 403.652C56.7272 403.656 49.4978 403.959 42.4089 403.348Q38.8315 403.072 35.3421 402.236Q31.8528 401.401 28.5385 400.026Q27.4513 399.578 26.3883 399.075Q25.3252 398.573 24.289 398.017Q23.2528 397.461 22.246 396.853Q21.2393 396.245 20.2647 395.587Q19.2901 394.93 18.35 394.223Q17.41 393.517 16.507 392.763Q15.604 392.01 14.7403 391.212Q13.8766 390.414 13.0545 389.573Q12.2324 388.733 11.4539 387.851Q10.6755 386.97 9.94268 386.05Q9.20988 385.131 8.52465 384.175Q7.83941 383.219 7.20348 382.23Q6.56756 381.241 5.98258 380.221Q5.3976 379.201 4.86507 378.152Q4.33254 377.104 3.85384 376.03Q3.37513 374.956 2.95147 373.859C1.79197 370.873 1.1739 366.612 0.17763 364.337C0.120342 364.206 0.05921 364.077 0 363.947L0 512L512 512L512 362.674ZM0 0L0 55.0272C1.01728 53.2509 1.29545 49.7782 1.98344 47.642Q2.54049 45.9041 3.23169 44.2152Q3.92289 42.5262 4.74401 40.8964Q5.56514 39.2666 6.51115 37.706Q7.45717 36.1454 8.52229 34.6635Q9.58741 33.1816 10.7651 31.7876Q11.9428 30.3935 13.2259 29.0958Q14.509 27.798 15.8896 26.6045Q17.2702 25.4111 18.7399 24.3292Q19.8794 23.4964 21.0674 22.7344Q22.2554 21.9723 23.4875 21.2838Q24.7195 20.5952 25.9911 19.9827Q27.2626 19.3702 28.569 18.836Q29.8754 18.3017 31.2118 17.8478Q32.5483 17.3939 33.9097 17.0219Q35.2712 16.6499 36.6528 16.3612Q38.0344 16.0725 39.4309 15.8682C48.1568 14.5422 58.6001 15.2238 67.5217 15.225L115.782 15.2179L142.952 15.217C147.001 15.2171 151.702 14.7554 155.675 15.3917C164.683 16.0026 174.149 15.5283 183.206 15.5252L235.427 15.5228L398.892 15.5264L446.505 15.5257C455.068 15.5236 466.005 14.771 474.238 16.2769Q475.206 16.4589 476.165 16.6815Q477.125 16.9042 478.074 17.167Q479.023 17.4299 479.96 17.7326Q480.898 18.0352 481.821 18.3771Q482.745 18.7191 483.653 19.0996Q484.562 19.4801 485.453 19.8986Q486.345 20.3171 487.218 20.7729Q488.091 21.2286 488.944 21.7207Q489.797 22.2128 490.629 22.7405Q491.46 23.2681 492.269 23.8303Q493.078 24.3926 493.862 24.9884Q494.646 25.5843 495.404 26.2126Q496.163 26.841 496.894 27.5008Q497.625 28.1605 498.328 28.8506Q499.031 29.5406 499.704 30.2596Q500.377 30.9786 501.019 31.7254C505.392 36.7671 508.799 43.2775 510.461 49.7351C511.031 51.949 511.229 54.4361 512 56.5605L512 0L0 0Z"/>
	<path fill="#2A4F95" d="M181.376 403.466L269.83 403.41C290.074 403.411 310.373 403.066 330.608 403.481C332.918 406.417 334.735 409.901 336.658 413.104C339.471 417.789 342.389 422.446 345.039 427.224C340.863 428.23 328.141 427.637 323.103 427.639L256.136 427.652L240.054 427.628C235.864 427.617 230.716 427.12 226.669 428.172Q225.964 428.348 225.279 428.592Q224.595 428.837 223.937 429.146Q223.28 429.456 222.655 429.827Q222.031 430.199 221.445 430.63Q220.86 431.061 220.319 431.547Q219.779 432.032 219.288 432.568Q218.797 433.104 218.36 433.685Q217.924 434.266 217.546 434.887C214.751 439.427 213.331 445.033 211.225 449.933L210.939 450.05C198.384 449.77 185.788 449.98 173.228 449.991C166.969 449.996 159.975 450.614 153.827 449.497C154.847 446.287 161.583 436.14 163.751 432.527L174.624 414.392C176.818 410.732 178.901 406.94 181.376 403.466Z"/>
	<path fill="#4A66A0" d="M153.827 449.497C159.975 450.614 166.969 449.996 173.228 449.991C185.788 449.98 198.384 449.77 210.939 450.05C204.756 458.948 200.844 467.405 202.787 478.522C203.455 482.347 204.822 486.527 206.821 489.862C208.06 491.931 210.1 494.282 210.713 496.595C206.713 497.169 202.186 496.756 198.115 496.749L173.464 496.735L139.81 496.743C133.942 496.745 127.739 497.168 121.915 496.533C118.169 496.124 114.707 495.044 111.529 493.001C106.466 489.746 102.411 484.32 101.188 478.377C99.8948 472.091 101.004 465.531 104.564 460.164C111.184 450.185 119.952 449.746 130.826 449.752L145.175 449.779C147.638 449.79 150.952 450.17 153.334 449.62C153.499 449.582 153.663 449.538 153.827 449.497Z"/>
	<path fill="#687DAA" d="M345.039 427.224C349.262 434.778 354.216 441.979 358.265 449.616C358.403 449.651 358.539 449.689 358.677 449.721C360.792 450.217 363.856 449.803 366.063 449.808L380.351 449.785C391.137 449.757 400.735 450.236 407.303 460.189C410.681 465.308 412.102 471.754 410.832 477.787Q410.716 478.355 410.572 478.917Q410.428 479.479 410.257 480.033Q410.086 480.587 409.888 481.132Q409.689 481.677 409.464 482.212Q409.24 482.747 408.989 483.269Q408.738 483.792 408.462 484.302Q408.185 484.812 407.884 485.308Q407.583 485.804 407.258 486.284Q406.933 486.764 406.585 487.228Q406.236 487.692 405.866 488.138Q405.495 488.584 405.103 489.011Q404.71 489.438 404.298 489.846Q403.885 490.253 403.453 490.64Q403.02 491.027 402.57 491.392Q402.119 491.757 401.651 492.099Q401.182 492.441 400.698 492.76C397.693 494.702 394.359 495.81 390.811 496.225C385.996 496.788 380.907 496.471 376.055 496.467L350.562 496.457L256.092 496.457L226.66 496.449C221.418 496.446 215.923 496.118 210.713 496.595C210.1 494.282 208.06 491.931 206.821 489.862C204.822 486.527 203.455 482.347 202.787 478.522C200.844 467.405 204.756 458.948 210.939 450.05L211.225 449.933C213.331 445.033 214.751 439.427 217.546 434.887Q217.924 434.266 218.36 433.685Q218.797 433.104 219.288 432.568Q219.779 432.032 220.319 431.547Q220.86 431.061 221.445 430.63Q222.031 430.199 222.655 429.827Q223.28 429.456 223.937 429.146Q224.595 428.837 225.279 428.592Q225.964 428.348 226.669 428.172C230.716 427.12 235.864 427.617 240.054 427.628L256.136 427.652L323.103 427.639C328.141 427.637 340.863 428.23 345.039 427.224Z"/>
	<path fill="#4A66A0" d="M345.039 427.224C349.262 434.778 354.216 441.979 358.265 449.616C347.185 450.177 336.091 449.998 324.999 449.999L276.279 450.002L233.31 449.999C226.013 449.998 218.502 450.355 211.225 449.933C213.331 445.033 214.751 439.427 217.546 434.887Q217.924 434.266 218.36 433.685Q218.797 433.104 219.288 432.568Q219.779 432.032 220.319 431.547Q220.86 431.061 221.445 430.63Q222.031 430.199 222.655 429.827Q223.28 429.456 223.937 429.146Q224.595 428.837 225.279 428.592Q225.964 428.348 226.669 428.172C230.716 427.12 235.864 427.617 240.054 427.628L256.136 427.652L323.103 427.639C328.141 427.637 340.863 428.23 345.039 427.224Z"/>
</svg>
