<?xml version="1.0" encoding="utf-8" ?>
<svg xmlns="http://www.w3.org/2000/svg" xmlns:xlink="http://www.w3.org/1999/xlink" width="64" height="64">
	<path d="M4.74414 2.08318C15.0985 1.81504 25.5147 2.04884 35.8761 2.05462C43.0465 2.05862 50.3386 1.73888 57.4939 2.02761C58.4718 2.06707 59.5108 2.11883 60.4323 2.47499C61.0187 2.70165 61.4809 3.48137 61.7161 4.04148C62.3254 5.49249 62.3258 58.7697 61.6702 60.2937C61.2509 61.2683 60.4349 61.6082 59.5171 61.9697C48.4125 62.263 37.2507 62.0018 26.1407 61.9974C19.6647 61.9948 12.5044 62.4721 6.13897 61.9763C4.89006 61.879 3.29816 61.6496 2.43983 60.6468C2.10282 59.7318 2.00777 58.769 1.9735 57.8005C1.80798 53.123 1.75716 5.02267 2.32975 3.76661C2.76861 2.8039 3.82355 2.41474 4.74414 2.08318Z"/>
	<path fill="#EAEAEF" d="M33.0101 3.98625L49.567 3.97896C52.9977 3.98013 56.5041 3.84289 59.9199 4.1719C60.1416 15.7949 59.9619 27.4532 59.9676 39.0806C59.9709 45.8866 60.4301 53.0448 59.8683 59.8139C56.8299 60.2428 53.4704 60.002 50.3988 60.0032L33.0334 59.987C32.6434 41.3497 33.0072 22.6322 33.0101 3.98625Z"/>
	<path d="M46.1554 37.3502C47.4895 37.7476 49.1308 39.0596 50.1805 39.9727C55.0082 44.1723 56.5782 49.5648 57.0009 55.7346C53.881 56.3523 50.268 56.019 47.0909 56.0141C44.384 56.0327 38.7358 56.5516 36.3086 55.7454L36.2087 55.2974C37.1479 51.6406 43.8047 40.9626 46.1554 37.3502Z"/>
	<path fill="#FCBE76" d="M44.836 43.3305C48.5021 46.3772 50.2568 49.2527 50.9933 53.9677L44.2771 53.9707L38.6668 53.9572C39.3462 52.954 39.9446 51.8734 40.5741 50.8368C41.9825 48.3914 43.6595 45.884 44.836 43.3305Z"/>
	<path fill="#FCBE76" d="M46.3934 40.1034Q46.7818 40.1496 47.1504 40.2807C49.7332 41.1997 52.2204 45.0979 53.3374 47.4722C54.2117 49.3306 55.3197 52.3658 54.6017 54.3607Q54.2994 54.2939 54.0012 54.2106C53.9287 54.1897 53.8548 54.1683 53.7851 54.1393C52.534 53.6193 51.6879 48.4005 50.9046 46.9979C49.7868 44.9964 47.2887 43.6683 46.2596 41.6879C45.9603 41.1119 46.2186 40.6758 46.3934 40.1034Z"/>
	<path d="M36.2298 32.0252C39.6065 31.9801 45.3476 31.4132 48.4206 32.1543C48.8503 32.7689 48.7526 33.1833 48.7602 33.9177C45.7926 34.1454 39.4175 34.4821 36.5981 33.8444C36.1217 33.2195 36.2371 32.7931 36.2298 32.0252Z"/>
	<path d="M36.2356 26.0243C39.6222 25.9786 45.3338 25.4128 48.4192 26.1543C48.8504 26.7628 48.7556 27.1523 48.7634 27.8818C45.8926 28.1726 39.3246 28.4197 36.584 27.8372C36.1283 27.2266 36.2435 26.7703 36.2356 26.0243Z"/>
	<path d="M36.2353 20.0261C39.6235 19.9795 45.3289 19.4134 48.4173 20.1552C48.8531 20.764 48.7519 21.144 48.753 21.8758C45.7624 22.1892 39.4239 22.4602 36.5597 21.8231C36.1309 21.2334 36.2446 20.7415 36.2353 20.0261Z"/>
	<path d="M36.2356 14.0282C39.7104 13.98 45.204 13.4302 48.4154 14.1567C48.8587 14.7663 48.7471 15.1334 48.7375 15.869C45.9604 16.1766 39.2059 16.412 36.5628 15.8218C36.1339 15.2341 36.2464 14.742 36.2356 14.0282Z"/>
	<path d="M36.2419 8.03593C39.1755 7.98711 46.0393 7.37068 48.4887 8.21152C48.839 8.85042 48.749 9.14001 48.6888 9.84483C45.7825 10.2245 39.3835 10.4195 36.5754 9.81795C36.1272 9.23425 36.249 8.75664 36.2419 8.03593Z"/>
	<path d="M51.2243 32.0213C52.834 31.9618 54.9755 31.6086 56.4536 32.3354C56.8361 32.9343 56.76 33.1336 56.6937 33.8132C55.0625 33.9705 53.2749 34.3735 51.7073 33.7894C51.1387 33.1375 51.2428 32.8578 51.2243 32.0213Z"/>
	<path d="M51.2278 26.0225C52.8317 25.9617 54.9818 25.604 56.4494 26.3436C56.8221 26.9297 56.7524 27.1312 56.6934 27.8C55.0741 27.9679 53.256 28.386 51.7012 27.781C51.1275 27.1315 51.2385 26.8599 51.2278 26.0225Z"/>
	<path d="M51.2295 20.0252C52.8327 19.9637 54.98 19.6062 56.4471 20.3459C56.8224 20.9304 56.7522 21.129 56.6932 21.7977C55.0634 21.9596 53.284 22.3631 51.7156 21.7823C51.1259 21.1269 51.2417 20.8803 51.2295 20.0252Z"/>
	<path d="M51.2279 14.0252C52.8311 13.9648 54.9771 13.61 56.4445 14.3491C56.8231 14.9318 56.7521 15.1273 56.693 15.7959C55.0626 15.9579 53.2824 16.3624 51.7136 15.7807C51.1328 15.1325 51.2424 14.8656 51.2279 14.0252Z"/>
	<path d="M51.2305 8.02744C52.844 7.96905 54.9608 7.62742 56.444 8.35685C56.8257 8.9231 56.7662 9.08992 56.714 9.75298C55.0804 9.94331 53.2732 10.3847 51.7007 9.76647C51.1343 9.12891 51.2443 8.85187 51.2305 8.02744Z"/>
	<path fill="#FE6166" d="M4.20974 4.13036C13.0651 3.60155 22.1239 3.98554 31.004 4.00702L30.9698 42.2287C30.9717 48.0596 31.4452 54.2105 30.9105 59.9925C22.0301 59.9264 13.1423 60.1007 4.26363 59.9248C3.82292 57.3627 3.69447 5.98757 4.20974 4.13036Z"/>
	<path d="M16.581 8.07044C17.1286 8.00396 17.67 8.00667 18.2192 8.05162C20.5524 8.24256 22.324 8.65899 23.9021 10.5271C25.0304 11.8628 25.4712 13.5703 26.3421 15.0533C26.7508 15.7493 27.3895 16.2944 27.7145 17.0374C27.8743 17.4029 27.9106 17.7973 27.8734 18.1911C27.75 19.4946 24.8067 24.4175 23.7624 25.2955C22.2894 25.873 20.7421 25.9536 19.1829 26.008C16.383 26.0447 13.9499 26.0704 11.2457 25.3019C10.1812 24.2541 7.30597 19.6188 7.09065 18.1645C7.03704 17.8024 7.09004 17.2858 7.24383 16.9524C7.39491 16.6249 7.69885 16.3295 7.92898 16.0529C9.28596 14.4217 9.73462 12.3074 10.9841 10.6119C12.3358 8.7778 14.4679 8.38894 16.581 8.07044Z"/>
	<path fill="#FCBE76" d="M16.7055 10.084C17.9871 10.0068 19.3944 10.0284 20.597 10.5341C22.5826 11.3692 23.3539 13.0729 24.119 14.9314L18.6609 14.9915Q14.7849 15.0254 10.9107 14.9053C11.2448 13.9927 11.6046 12.9922 12.1977 12.2158C13.3588 10.6956 14.8919 10.3294 16.7055 10.084Z"/>
	<path fill="#FCBE76" d="M10.9322 21.0464C14.3513 21.0197 20.9279 20.5072 23.9475 21.2641C23.9453 21.9842 23.3702 22.6565 22.9878 23.2361C22.5996 23.5824 22.0642 23.7961 21.5551 23.883C19.2333 24.2793 14.1338 24.6203 12.1667 23.2307C11.4082 22.6948 11.083 21.9333 10.9322 21.0464Z"/>
	<path fill="#D2925D" d="M9.22117 17.3177C11.9661 17.1562 23.5818 16.7735 25.5765 17.4716C25.8356 17.5622 25.8672 17.7577 25.9797 17.9922L25.6935 18.5722C23.3443 18.9195 10.9829 19.2574 9.26021 18.5336C8.96565 18.0217 9.0811 17.8915 9.22117 17.3177Z"/>
	<path d="M7.26953 42.0241C9.22302 41.9959 18.4709 41.3928 19.7308 42.538C19.864 43.1347 19.7917 43.3327 19.6156 43.9249C16.795 44.0547 9.78712 44.5159 7.41552 43.739C7.07768 43.0619 7.18277 42.7542 7.26953 42.0241Z"/>
	<path d="M7.26853 36.024C9.55413 35.9874 18.1876 35.3546 19.6391 36.4877C19.8675 37.0834 19.8207 37.2367 19.6905 37.8674C17.2471 38.177 9.67666 38.4699 7.41181 37.7394C7.06586 37.0845 7.19046 36.7437 7.26853 36.024Z"/>
	<path d="M7.2684 48.0239C10.054 47.9818 12.8426 47.9226 15.6285 47.9211C16.7238 47.9205 18.93 47.7355 19.733 48.5374C19.8649 49.1379 19.7894 49.3289 19.6041 49.922C16.8365 50.0686 9.75208 50.5025 7.41514 49.7392C7.06484 49.084 7.19029 48.7456 7.2684 48.0239Z"/>
	<path d="M7.2833 30.0312L14.9025 29.9313C16.0996 29.9218 18.8617 29.6648 19.7456 30.5348C19.8438 31.1838 19.8224 31.3076 19.5746 31.9169C17.0973 32.0705 9.32967 32.4658 7.37253 31.7044C7.06368 31.0279 7.17198 30.7443 7.2833 30.0312Z"/>
	<path d="M7.27747 54.0303C9.38588 53.9973 18.1925 53.3499 19.653 54.4856C19.8656 55.0717 19.8215 55.2294 19.692 55.8452C17.2493 56.1809 9.67915 56.4722 7.42481 55.7193C7.06264 55.0673 7.19034 54.7495 7.27747 54.0303Z"/>
	<path d="M22.2369 42.0364C23.7093 41.9697 26.3414 41.5286 27.6079 42.4001C27.8998 43.0361 27.8335 43.1979 27.6912 43.8646C26.0599 43.9902 23.9468 44.4366 22.4426 43.6543C22.0193 43.0151 22.1477 42.7696 22.2369 42.0364Z"/>
	<path d="M22.2369 36.0363C23.7286 35.9717 26.3154 35.5391 27.611 36.3989C27.9105 37.0385 27.8419 37.1892 27.6914 37.8599C26.0593 37.9879 23.9484 38.4369 22.4429 37.6535C22.0194 37.015 22.148 36.7692 22.2369 36.0363Z"/>
	<path d="M22.2375 48.0372C23.7058 47.9699 26.346 47.5264 27.606 48.4018C27.8962 49.0359 27.8335 49.1854 27.6914 49.8603C26.059 49.9881 23.9485 50.4366 22.4426 49.6534C22.0194 49.015 22.1481 48.7698 22.2375 48.0372Z"/>
	<path d="M22.241 30.0367C23.8247 29.9729 26.1997 29.5848 27.6101 30.4075C27.9298 31.048 27.8573 31.1634 27.6919 31.8505C26.0602 31.9849 23.9485 32.4433 22.4444 31.6516C22.0248 31.0149 22.1529 30.7665 22.241 30.0367Z"/>
	<path d="M22.2421 54.0417C23.7155 53.9735 26.3386 53.5314 27.6065 54.4045C27.9013 55.039 27.8425 55.155 27.6925 55.8456C26.0588 55.9806 23.9534 56.4375 22.4465 55.6457C22.0256 55.0144 22.1546 54.7677 22.2421 54.0417Z"/>
</svg>
